<mxfile host="app.diagrams.net" agent="Mozilla/5.0 (X11; Linux x86_64) AppleWebKit/537.36 (KHTML, like Gecko) Chrome/133.0.0.0 Safari/537.36" version="26.2.12">
  <diagram name="Page-1" id="0OB1SjxlkmEif9qe9Dw7">
    <mxGraphModel dx="2416" dy="987" grid="1" gridSize="10" guides="1" tooltips="1" connect="1" arrows="1" fold="1" page="1" pageScale="1" pageWidth="827" pageHeight="1169" math="0" shadow="0">
      <root>
        <mxCell id="0" />
        <mxCell id="1" parent="0" />
        <mxCell id="9zDUV_-yk2E7mMaCno5l-5" value="" style="html=1;dashed=0;whiteSpace=wrap;" vertex="1" parent="1">
          <mxGeometry x="-680" y="100" width="510" height="370" as="geometry" />
        </mxCell>
        <mxCell id="9zDUV_-yk2E7mMaCno5l-6" value="" style="html=1;dashed=0;whiteSpace=wrap;" vertex="1" parent="1">
          <mxGeometry x="-680" y="100" width="510" height="370" as="geometry" />
        </mxCell>
        <mxCell id="9zDUV_-yk2E7mMaCno5l-7" value="" style="html=1;dashed=0;whiteSpace=wrap;" vertex="1" parent="1">
          <mxGeometry x="-680" y="100" width="510" height="370" as="geometry" />
        </mxCell>
        <mxCell id="9zDUV_-yk2E7mMaCno5l-8" value="" style="html=1;dashed=0;whiteSpace=wrap;" vertex="1" parent="1">
          <mxGeometry x="-680" y="100" width="510" height="370" as="geometry" />
        </mxCell>
        <mxCell id="9zDUV_-yk2E7mMaCno5l-9" value="" style="html=1;dashed=0;whiteSpace=wrap;" vertex="1" parent="1">
          <mxGeometry x="-680" y="100" width="510" height="370" as="geometry" />
        </mxCell>
        <mxCell id="9zDUV_-yk2E7mMaCno5l-10" value="" style="html=1;dashed=0;whiteSpace=wrap;" vertex="1" parent="1">
          <mxGeometry x="-680" y="100" width="510" height="370" as="geometry" />
        </mxCell>
        <mxCell id="9zDUV_-yk2E7mMaCno5l-11" value="" style="html=1;dashed=0;whiteSpace=wrap;" vertex="1" parent="1">
          <mxGeometry x="-470" y="260" width="100" height="50" as="geometry" />
        </mxCell>
        <mxCell id="9zDUV_-yk2E7mMaCno5l-14" value="" style="html=1;dashed=0;whiteSpace=wrap;" vertex="1" parent="1">
          <mxGeometry x="-690" y="90" width="510" height="370" as="geometry" />
        </mxCell>
        <mxCell id="9zDUV_-yk2E7mMaCno5l-15" value="&lt;b&gt;book_id&lt;/b&gt;" style="rounded=0;whiteSpace=wrap;html=1;" vertex="1" parent="1">
          <mxGeometry x="-660" y="110" width="80" height="40" as="geometry" />
        </mxCell>
        <mxCell id="9zDUV_-yk2E7mMaCno5l-16" value="Title" style="rounded=1;whiteSpace=wrap;html=1;" vertex="1" parent="1">
          <mxGeometry x="-560" y="110" width="120" height="60" as="geometry" />
        </mxCell>
        <mxCell id="9zDUV_-yk2E7mMaCno5l-19" value="Price" style="ellipse;whiteSpace=wrap;html=1;" vertex="1" parent="1">
          <mxGeometry x="-390" y="110" width="120" height="80" as="geometry" />
        </mxCell>
        <mxCell id="9zDUV_-yk2E7mMaCno5l-22" value="publication_date" style="shape=hexagon;perimeter=hexagonPerimeter2;whiteSpace=wrap;html=1;fixedSize=1;" vertex="1" parent="1">
          <mxGeometry x="-680" y="190" width="120" height="80" as="geometry" />
        </mxCell>
        <mxCell id="9zDUV_-yk2E7mMaCno5l-36" style="edgeStyle=orthogonalEdgeStyle;rounded=0;orthogonalLoop=1;jettySize=auto;html=1;exitX=0;exitY=1;exitDx=0;exitDy=0;" edge="1" parent="1" source="9zDUV_-yk2E7mMaCno5l-31" target="9zDUV_-yk2E7mMaCno5l-10">
          <mxGeometry relative="1" as="geometry" />
        </mxCell>
        <mxCell id="9zDUV_-yk2E7mMaCno5l-31" value="" style="whiteSpace=wrap;html=1;" vertex="1" parent="1">
          <mxGeometry x="-120" y="90" width="540" height="370" as="geometry" />
        </mxCell>
        <mxCell id="9zDUV_-yk2E7mMaCno5l-32" value="&lt;b&gt;customer_id&lt;/b&gt;" style="rounded=0;whiteSpace=wrap;html=1;" vertex="1" parent="1">
          <mxGeometry x="-80" y="110" width="120" height="60" as="geometry" />
        </mxCell>
        <mxCell id="9zDUV_-yk2E7mMaCno5l-33" value="name" style="rounded=1;whiteSpace=wrap;html=1;" vertex="1" parent="1">
          <mxGeometry x="80" y="110" width="120" height="60" as="geometry" />
        </mxCell>
        <mxCell id="9zDUV_-yk2E7mMaCno5l-34" value="email" style="rounded=1;whiteSpace=wrap;html=1;" vertex="1" parent="1">
          <mxGeometry x="240" y="110" width="120" height="60" as="geometry" />
        </mxCell>
        <mxCell id="9zDUV_-yk2E7mMaCno5l-35" value="phone" style="ellipse;whiteSpace=wrap;html=1;" vertex="1" parent="1">
          <mxGeometry x="-80" y="190" width="120" height="80" as="geometry" />
        </mxCell>
      </root>
    </mxGraphModel>
  </diagram>
</mxfile>
